<svg xmlns="http://www.w3.org/2000/svg" width="600" height="600" viewBox="0 0 600 600">
  <defs>
    <radialGradient id="bgGrad" cx="50%" cy="40%" r="75%">
      <stop offset="0%" stop-color="#f6f9fd"/>
      <stop offset="100%" stop-color="#e2eaf7"/>
    </radialGradient>
    <radialGradient id="glow" cx="50%" cy="45%" r="55%">
      <stop offset="0%" stop-color="#8ec7ff" stop-opacity="0.5"/>
      <stop offset="100%" stop-color="#8ec7ff" stop-opacity="0"/>
    </radialGradient>
    <linearGradient id="botFill" x1="0%" y1="0%" x2="0%" y2="100%">
      <stop offset="0%" stop-color="#ffffff"/>
      <stop offset="100%" stop-color="#ecf1f9"/>
    </linearGradient>
  </defs>
  <rect width="600" height="600" fill="url(#bgGrad)"/>
  <circle cx="300" cy="270" r="260" fill="url(#glow)"/>
  
  <g transform="translate(230,345) rotate(0) scale(1.15)">
    <rect x="-38" y="70" width="26" height="55" rx="10" fill="url(#botFill)" stroke="#2b3a55" stroke-width="5"/>
    <rect x="12" y="70" width="26" height="55" rx="10" fill="url(#botFill)" stroke="#2b3a55" stroke-width="5"/>
    <g transform="rotate(-18)">
      <rect x="-92" y="-10" width="24" height="70" rx="12" fill="url(#botFill)" stroke="#2b3a55" stroke-width="5"/>
    </g>
    <g transform="rotate(18)">
      <rect x="68" y="-10" width="24" height="70" rx="12" fill="url(#botFill)" stroke="#2b3a55" stroke-width="5"/>
    </g>
    <rect x="-55" y="-20" width="110" height="95" rx="22" fill="url(#botFill)" stroke="#2b3a55" stroke-width="5"/>
    <circle cx="0" cy="20" r="10" fill="none" stroke="#4a90e2" stroke-width="4"/>
    <rect x="-10" y="-32" width="20" height="16" fill="url(#botFill)" stroke="#2b3a55" stroke-width="4"/>
    <rect x="-42" y="-95" width="84" height="66" rx="20" fill="url(#botFill)" stroke="#2b3a55" stroke-width="5"/>
    <circle cx="-16" cy="-64" r="9" fill="#5ec9e8" stroke="#2b3a55" stroke-width="2.5"/>
    <circle cx="16" cy="-64" r="9" fill="#5ec9e8" stroke="#2b3a55" stroke-width="2.5"/>
    <rect x="-20" y="-104" width="40" height="10" rx="5" fill="#4a90e2"/>
  </g>
  <g transform="translate(150,300)">
    <rect x="-40" y="-30" width="80" height="54" rx="4" fill="url(#botFill)" stroke="#2b3a55" stroke-width="4"/>
    <line x1="-30" y1="-14" x2="20" y2="-14" stroke="#4a90e2" stroke-width="3" stroke-linecap="round"/>
    <line x1="-30" y1="-2" x2="24" y2="-2" stroke="#4a90e2" stroke-width="3" stroke-linecap="round"/>
    <line x1="-30" y1="10" x2="10" y2="10" stroke="#4a90e2" stroke-width="3" stroke-linecap="round"/>
    <path d="M -46,24 L 46,24 L 36,44 L -36,44 Z" fill="url(#botFill)" stroke="#2b3a55" stroke-width="4" stroke-linejoin="round"/>
  </g>
  <g transform="translate(455,440) rotate(0) scale(0.58)">
    <rect x="-38" y="70" width="26" height="55" rx="10" fill="url(#botFill)" stroke="#2b3a55" stroke-width="5"/>
    <rect x="12" y="70" width="26" height="55" rx="10" fill="url(#botFill)" stroke="#2b3a55" stroke-width="5"/>
    <g transform="rotate(-40)">
      <rect x="-92" y="-10" width="24" height="70" rx="12" fill="url(#botFill)" stroke="#2b3a55" stroke-width="5"/>
    </g>
    <g transform="rotate(10)">
      <rect x="68" y="-10" width="24" height="70" rx="12" fill="url(#botFill)" stroke="#2b3a55" stroke-width="5"/>
    </g>
    <rect x="-55" y="-20" width="110" height="95" rx="22" fill="url(#botFill)" stroke="#2b3a55" stroke-width="5"/>
    <circle cx="0" cy="20" r="10" fill="none" stroke="#4a90e2" stroke-width="4"/>
    <rect x="-10" y="-32" width="20" height="16" fill="url(#botFill)" stroke="#2b3a55" stroke-width="4"/>
    <rect x="-42" y="-95" width="84" height="66" rx="20" fill="url(#botFill)" stroke="#2b3a55" stroke-width="5"/>
    <circle cx="-16" cy="-64" r="9" fill="#5ec9e8" stroke="#2b3a55" stroke-width="2.5"/>
    <circle cx="16" cy="-64" r="9" fill="#5ec9e8" stroke="#2b3a55" stroke-width="2.5"/>
    <rect x="-20" y="-104" width="40" height="10" rx="5" fill="#4a90e2"/>
  </g>
  <g transform="translate(455,335)">
    <rect x="-32" y="-6" width="18" height="36" fill="url(#botFill)" stroke="#2b3a55" stroke-width="3.5"/>
    <rect x="-8" y="4" width="18" height="26" fill="url(#botFill)" stroke="#2b3a55" stroke-width="3.5"/>
    <rect x="16" y="14" width="18" height="16" fill="url(#botFill)" stroke="#2b3a55" stroke-width="3.5"/>
    <path d="M -32,-14 L -2,4 L 24,10" fill="none" stroke="#4a90e2" stroke-width="3.5" stroke-linecap="round" stroke-linejoin="round"/>
    <path d="M 12,10 L 24,10 L 24,22" fill="none" stroke="#4a90e2" stroke-width="3.5" stroke-linecap="round" stroke-linejoin="round"/>
  </g>

</svg>