<svg xmlns="http://www.w3.org/2000/svg" width="600" height="600" viewBox="0 0 600 600">
<defs><radialGradient id="bg" cx="50%" cy="45%" r="75%"><stop offset="0" stop-color="#f6f9fd"/><stop offset="1" stop-color="#e2eaf7"/></radialGradient>
<radialGradient id="gl" cx="50%" cy="50%" r="50%"><stop offset="0" stop-color="#8ec7ff" stop-opacity=".5"/><stop offset="1" stop-color="#8ec7ff" stop-opacity="0"/></radialGradient>
<linearGradient id="rb" x1="0" y1="0" x2="0" y2="1"><stop offset="0" stop-color="#fff"/><stop offset="1" stop-color="#ecf1f9"/></linearGradient></defs>
<rect width="600" height="600" fill="url(#bg)"/><circle cx="300" cy="300" r="260" fill="url(#gl)"/>
<g transform="translate(250,260) scale(1.3) rotate(0)">
<rect x="-45" y="10" width="90" height="100" rx="22" fill="url(#rb)" stroke="#2b3a55" stroke-width="5"/>
<rect x="-32" y="105" width="24" height="50" rx="10" fill="url(#rb)" stroke="#2b3a55" stroke-width="5"/>
<rect x="8" y="105" width="24" height="50" rx="10" fill="url(#rb)" stroke="#2b3a55" stroke-width="5"/>
<rect x="-70" y="25" width="22" height="66" rx="11" fill="url(#rb)" stroke="#2b3a55" stroke-width="5"/>
<rect x="48" y="25" width="22" height="66" rx="11" fill="url(#rb)" stroke="#2b3a55" stroke-width="5"/>
<rect x="-52" y="-70" width="104" height="76" rx="26" fill="url(#rb)" stroke="#2b3a55" stroke-width="5"/>
<circle cx="-20" cy="-32" r="10" fill="#5ec9e8"/><circle cx="20" cy="-32" r="10" fill="#5ec9e8"/>
<rect x="-14" y="45" width="28" height="16" rx="6" fill="#4a90e2"/></g><circle cx="410" cy="230" r="80" fill="#fff" fill-opacity=".45" stroke="#2b3a55" stroke-width="10"/><line x1="468" y1="288" x2="530" y2="350" stroke="#2b3a55" stroke-width="16" stroke-linecap="round"/>
<rect x="150" y="460" width="200" height="60" rx="10" fill="#fff" stroke="#2b3a55" stroke-width="5"/><line x1="175" y1="482" x2="325" y2="482" stroke="#2b3a55" stroke-width="5"/><line x1="175" y1="502" x2="285" y2="502" stroke="#2b3a55" stroke-width="5"/></svg>