<svg xmlns="http://www.w3.org/2000/svg" width="600" height="600" viewBox="0 0 600 600">
<defs>
  <radialGradient id="bg" cx="35%" cy="28%" r="85%">
    <stop offset="0%" stop-color="#f6f9fd"/>
    <stop offset="100%" stop-color="#e2eaf7"/>
  </radialGradient>
  <linearGradient id="body" x1="0%" y1="0%" x2="0%" y2="100%">
    <stop offset="0%" stop-color="#ffffff"/>
    <stop offset="100%" stop-color="#ecf1f9"/>
  </linearGradient>
  <radialGradient id="glow" cx="50%" cy="50%" r="50%">
    <stop offset="0%" stop-color="#8ec7ff" stop-opacity="0.5"/>
    <stop offset="100%" stop-color="#8ec7ff" stop-opacity="0"/>
  </radialGradient>
</defs>
<rect width="600" height="600" fill="url(#bg)"/>
<circle cx="300" cy="300" r="230" fill="url(#glow)"/>
<g transform="translate(190,470) rotate(0) scale(1.05)">
<rect x="-22" y="70" width="16" height="34" rx="8" fill="url(#body)" stroke="#2b3a55" stroke-width="4"/>
<rect x="6" y="70" width="16" height="34" rx="8" fill="url(#body)" stroke="#2b3a55" stroke-width="4"/>
<rect x="-34" y="4" width="68" height="72" rx="20" fill="url(#body)" stroke="#2b3a55" stroke-width="4.5"/>
<circle cx="0" cy="38" r="14" fill="#dceaff" stroke="#2b3a55" stroke-width="3"/>
<circle cx="0" cy="38" r="6" fill="#4a90e2"/>
<rect x="-52" y="14" width="16" height="50" rx="8" fill="url(#body)" stroke="#2b3a55" stroke-width="4"/>
<rect x="36" y="10" width="16" height="50" rx="8" fill="url(#body)" stroke="#2b3a55" stroke-width="4" transform="rotate(-40 44 16)"/>
<rect x="-36" y="-70" width="72" height="66" rx="26" fill="url(#body)" stroke="#2b3a55" stroke-width="4.5"/>
<circle cx="-15" cy="-38" r="10.5" fill="#5ec9e8"/>
<circle cx="15" cy="-38" r="10.5" fill="#5ec9e8"/>
<circle cx="-15" cy="-38" r="4" fill="#0d2033"/>
<circle cx="15" cy="-38" r="4" fill="#0d2033"/>
<rect x="-3.5" y="-88" width="7" height="14" rx="3.5" fill="#2b3a55"/>
<circle cx="0" cy="-92" r="6.5" fill="#4a90e2"/>
</g>
<g transform="translate(430,300)">
<path d="M0,-100 L80,-70 L80,10 C80,70 40,110 0,130 C-40,110 -80,70 -80,10 L-80,-70 Z"
      fill="#eef2f9" stroke="#2b3a55" stroke-width="5"/>
<rect x="-24" y="-14" width="48" height="40" rx="6" fill="#ffffff" stroke="#2b3a55" stroke-width="4"/>
<path d="M-14,-14 v-16 a14,14 0 0 1 28,0 v16" stroke="#2b3a55" stroke-width="5" fill="none" stroke-linecap="round"/>
<circle cx="0" cy="8" r="5" fill="#4a90e2"/>
</g>
<g transform="translate(190,200)">
<path d="M-24,0 C-14,-16 14,-16 24,0 C14,16 -14,16 -24,0 Z" fill="#e7f1ff" stroke="#2b3a55" stroke-width="3.5"/>
<circle cx="0" cy="0" r="8" fill="#4a90e2"/>
<circle cx="0" cy="0" r="3" fill="#0d2033"/>
</g>
<g transform="translate(320,400)">
<circle cx="-4" cy="-4" r="16" fill="#f6f9fd" stroke="#2b3a55" stroke-width="4"/>
<line x1="8" y1="8" x2="22" y2="22" stroke="#2b3a55" stroke-width="5" stroke-linecap="round"/>
<line x1="-18" y1="10" x2="10" y2="-18" stroke="#c0392b" stroke-width="4" stroke-linecap="round"/>
</g>
</svg>