<svg xmlns="http://www.w3.org/2000/svg" viewBox="0 0 600 600" width="600" height="600">

  <defs>
    <radialGradient id="bgGrad" cx="50%" cy="42%" r="75%">
      <stop offset="0%" stop-color="#f6f9fd"/>
      <stop offset="100%" stop-color="#e2eaf7"/>
    </radialGradient>
    <radialGradient id="glow" cx="50%" cy="38%" r="40%">
      <stop offset="0%" stop-color="#8ec7ff" stop-opacity="0.5"/>
      <stop offset="100%" stop-color="#8ec7ff" stop-opacity="0"/>
    </radialGradient>
    <linearGradient id="bodyGrad" x1="0%" y1="0%" x2="0%" y2="100%">
      <stop offset="0%" stop-color="#ffffff"/>
      <stop offset="100%" stop-color="#ecf1f9"/>
    </linearGradient>
  </defs>

<rect width="600" height="600" fill="url(#bgGrad)"/><circle cx="300" cy="230" r="240" fill="url(#glow)"/>
<g transform="translate(300,110)">
<polygon points="10,-40 -22,10 2,10 -10,44 26,-6 2,-6" fill="#5ec9e8" stroke="#2b3a55" stroke-width="3" stroke-linejoin="round"/>
</g>
<g transform="translate(300,300) rotate(0) scale(1.15)">
<rect x="-26" y="55" width="18" height="42" rx="7" fill="url(#bodyGrad)" stroke="#2b3a55" stroke-width="4"/>
<rect x="8" y="55" width="18" height="42" rx="7" fill="url(#bodyGrad)" stroke="#2b3a55" stroke-width="4"/>
<g transform="rotate(30 -34 -10)"><rect x="-52" y="-10" width="18" height="46" rx="8" fill="url(#bodyGrad)" stroke="#2b3a55" stroke-width="4"/></g>
<g transform="rotate(-30 34 -10)"><rect x="34" y="-10" width="18" height="46" rx="8" fill="url(#bodyGrad)" stroke="#2b3a55" stroke-width="4"/></g>
<rect x="-38" y="-38" width="76" height="88" rx="18" fill="url(#bodyGrad)" stroke="#2b3a55" stroke-width="4.5"/>
<rect x="-18" y="-6" width="36" height="10" rx="5" fill="#4a90e2" opacity="0.85"/>
<rect x="-8" y="-50" width="16" height="16" fill="url(#bodyGrad)" stroke="#2b3a55" stroke-width="3.5"/>
<rect x="-34" y="-100" width="68" height="54" rx="16" fill="url(#bodyGrad)" stroke="#2b3a55" stroke-width="4.5"/>
<line x1="0" y1="-100" x2="0" y2="-114" stroke="#2b3a55" stroke-width="4" stroke-linecap="round"/>
<circle cx="0" cy="-118" r="6" fill="#4a90e2"/>
<circle cx="-14" cy="-74" r="9" fill="#5ec9e8"/>
<circle cx="14" cy="-74" r="9" fill="#5ec9e8"/>
<circle cx="-14" cy="-74" r="3.4" fill="#ffffff" opacity="0.9"/>
<circle cx="14" cy="-74" r="3.4" fill="#ffffff" opacity="0.9"/>
</g>
<path d="M 300 350 Q 225 430 150 430" fill="none" stroke="#4a90e2" stroke-width="3.5" stroke-dasharray="2 7" stroke-linecap="round"/>
<path d="M 300 350 Q 300 430 300 460" fill="none" stroke="#4a90e2" stroke-width="3.5" stroke-dasharray="2 7" stroke-linecap="round"/>
<path d="M 300 350 Q 375 430 450 430" fill="none" stroke="#4a90e2" stroke-width="3.5" stroke-dasharray="2 7" stroke-linecap="round"/>
<g transform="translate(150,470) rotate(0) scale(0.5)">
<rect x="-26" y="55" width="18" height="42" rx="7" fill="url(#bodyGrad)" stroke="#2b3a55" stroke-width="4"/>
<rect x="8" y="55" width="18" height="42" rx="7" fill="url(#bodyGrad)" stroke="#2b3a55" stroke-width="4"/>
<g transform="rotate(15 -34 -10)"><rect x="-52" y="-10" width="18" height="46" rx="8" fill="url(#bodyGrad)" stroke="#2b3a55" stroke-width="4"/></g>
<g transform="rotate(-15 34 -10)"><rect x="34" y="-10" width="18" height="46" rx="8" fill="url(#bodyGrad)" stroke="#2b3a55" stroke-width="4"/></g>
<rect x="-38" y="-38" width="76" height="88" rx="18" fill="url(#bodyGrad)" stroke="#2b3a55" stroke-width="4.5"/>
<rect x="-18" y="-6" width="36" height="10" rx="5" fill="#4a90e2" opacity="0.85"/>
<rect x="-8" y="-50" width="16" height="16" fill="url(#bodyGrad)" stroke="#2b3a55" stroke-width="3.5"/>
<rect x="-34" y="-100" width="68" height="54" rx="16" fill="url(#bodyGrad)" stroke="#2b3a55" stroke-width="4.5"/>
<line x1="0" y1="-100" x2="0" y2="-114" stroke="#2b3a55" stroke-width="4" stroke-linecap="round"/>
<circle cx="0" cy="-118" r="6" fill="#4a90e2"/>
<circle cx="-14" cy="-74" r="9" fill="#5ec9e8"/>
<circle cx="14" cy="-74" r="9" fill="#5ec9e8"/>
<circle cx="-14" cy="-74" r="3.4" fill="#ffffff" opacity="0.9"/>
<circle cx="14" cy="-74" r="3.4" fill="#ffffff" opacity="0.9"/>
</g>
<g transform="translate(300,500) rotate(0) scale(0.5)">
<rect x="-26" y="55" width="18" height="42" rx="7" fill="url(#bodyGrad)" stroke="#2b3a55" stroke-width="4"/>
<rect x="8" y="55" width="18" height="42" rx="7" fill="url(#bodyGrad)" stroke="#2b3a55" stroke-width="4"/>
<g transform="rotate(15 -34 -10)"><rect x="-52" y="-10" width="18" height="46" rx="8" fill="url(#bodyGrad)" stroke="#2b3a55" stroke-width="4"/></g>
<g transform="rotate(-15 34 -10)"><rect x="34" y="-10" width="18" height="46" rx="8" fill="url(#bodyGrad)" stroke="#2b3a55" stroke-width="4"/></g>
<rect x="-38" y="-38" width="76" height="88" rx="18" fill="url(#bodyGrad)" stroke="#2b3a55" stroke-width="4.5"/>
<rect x="-18" y="-6" width="36" height="10" rx="5" fill="#4a90e2" opacity="0.85"/>
<rect x="-8" y="-50" width="16" height="16" fill="url(#bodyGrad)" stroke="#2b3a55" stroke-width="3.5"/>
<rect x="-34" y="-100" width="68" height="54" rx="16" fill="url(#bodyGrad)" stroke="#2b3a55" stroke-width="4.5"/>
<line x1="0" y1="-100" x2="0" y2="-114" stroke="#2b3a55" stroke-width="4" stroke-linecap="round"/>
<circle cx="0" cy="-118" r="6" fill="#4a90e2"/>
<circle cx="-14" cy="-74" r="9" fill="#5ec9e8"/>
<circle cx="14" cy="-74" r="9" fill="#5ec9e8"/>
<circle cx="-14" cy="-74" r="3.4" fill="#ffffff" opacity="0.9"/>
<circle cx="14" cy="-74" r="3.4" fill="#ffffff" opacity="0.9"/>
</g>
<g transform="translate(450,470) rotate(0) scale(0.5)">
<rect x="-26" y="55" width="18" height="42" rx="7" fill="url(#bodyGrad)" stroke="#2b3a55" stroke-width="4"/>
<rect x="8" y="55" width="18" height="42" rx="7" fill="url(#bodyGrad)" stroke="#2b3a55" stroke-width="4"/>
<g transform="rotate(15 -34 -10)"><rect x="-52" y="-10" width="18" height="46" rx="8" fill="url(#bodyGrad)" stroke="#2b3a55" stroke-width="4"/></g>
<g transform="rotate(-15 34 -10)"><rect x="34" y="-10" width="18" height="46" rx="8" fill="url(#bodyGrad)" stroke="#2b3a55" stroke-width="4"/></g>
<rect x="-38" y="-38" width="76" height="88" rx="18" fill="url(#bodyGrad)" stroke="#2b3a55" stroke-width="4.5"/>
<rect x="-18" y="-6" width="36" height="10" rx="5" fill="#4a90e2" opacity="0.85"/>
<rect x="-8" y="-50" width="16" height="16" fill="url(#bodyGrad)" stroke="#2b3a55" stroke-width="3.5"/>
<rect x="-34" y="-100" width="68" height="54" rx="16" fill="url(#bodyGrad)" stroke="#2b3a55" stroke-width="4.5"/>
<line x1="0" y1="-100" x2="0" y2="-114" stroke="#2b3a55" stroke-width="4" stroke-linecap="round"/>
<circle cx="0" cy="-118" r="6" fill="#4a90e2"/>
<circle cx="-14" cy="-74" r="9" fill="#5ec9e8"/>
<circle cx="14" cy="-74" r="9" fill="#5ec9e8"/>
<circle cx="-14" cy="-74" r="3.4" fill="#ffffff" opacity="0.9"/>
<circle cx="14" cy="-74" r="3.4" fill="#ffffff" opacity="0.9"/>
</g>
</svg>