<svg xmlns="http://www.w3.org/2000/svg" width="600" height="600" viewBox="0 0 600 600">

  <defs>
    <radialGradient id="bgGrad" cx="50%" cy="42%" r="75%">
      <stop offset="0%" stop-color="#f6f9fd"/>
      <stop offset="100%" stop-color="#e2eaf7"/>
    </radialGradient>
    <radialGradient id="glow" cx="50%" cy="46%" r="55%">
      <stop offset="0%" stop-color="#8ec7ff" stop-opacity="0.5"/>
      <stop offset="100%" stop-color="#8ec7ff" stop-opacity="0"/>
    </radialGradient>
    <linearGradient id="bodyGrad" x1="0%" y1="0%" x2="0%" y2="100%">
      <stop offset="0%" stop-color="#ffffff"/>
      <stop offset="100%" stop-color="#ecf1f9"/>
    </linearGradient>
  </defs>

  <rect width="600" height="600" fill="url(#bgGrad)"/>
  <circle cx="300" cy="280" r="260" fill="url(#glow)"/>

<g transform="translate(255,150) scale(1.2)">
<path d="M -14,4 L -22,34 L 0,22 L 22,34 L 14,4 Z" fill="url(#bodyGrad)" stroke="#2b3a55" stroke-width="4"/>
<circle cx="0" cy="-8" r="26" fill="url(#bodyGrad)" stroke="#2b3a55" stroke-width="4.5"/>
<path d="M0,-22 L4.5,-11 L16,-11 L6.7,-4 L10,7 L0,0 L-10,7 L-6.7,-4 L-16,-11 L-4.5,-11 Z"
      fill="#5ec9e8"/>
</g>
<g transform="translate(415,195) scale(1.15)">
<line x1="-30" y1="30" x2="30" y2="30" stroke="#2b3a55" stroke-width="4" stroke-linecap="round"/>
<rect x="-26" y="6" width="14" height="24" rx="4" fill="url(#bodyGrad)" stroke="#2b3a55" stroke-width="4"/>
<rect x="-7" y="-10" width="14" height="40" rx="4" fill="url(#bodyGrad)" stroke="#2b3a55" stroke-width="4"/>
<rect x="12" y="-26" width="14" height="56" rx="4" fill="#4a90e2" stroke="#2b3a55" stroke-width="4"/>
</g>
<g transform="translate(240,430) scale(1.45,1.45)">
<rect x="-34" y="70" width="24" height="46" rx="10" fill="url(#bodyGrad)" stroke="#2b3a55" stroke-width="5"/>
<rect x="10" y="70" width="24" height="46" rx="10" fill="url(#bodyGrad)" stroke="#2b3a55" stroke-width="5"/>
<g transform="translate(56,-6) rotate(-25)"><rect x="-11" y="0" width="22" height="70" rx="11" fill="url(#bodyGrad)" stroke="#2b3a55" stroke-width="5"/></g>
<rect x="-68" y="-6" width="22" height="70" rx="11" fill="url(#bodyGrad)" stroke="#2b3a55" stroke-width="5"/>
<rect x="-46" y="-30" width="92" height="104" rx="22" fill="url(#bodyGrad)" stroke="#2b3a55" stroke-width="5.5"/>
<rect x="-22" y="6" width="44" height="10" rx="5" fill="#4a90e2"/>
<circle cx="0" cy="34" r="9" fill="none" stroke="#4a90e2" stroke-width="4"/>
<rect x="-9" y="-42" width="18" height="16" fill="url(#bodyGrad)" stroke="#2b3a55" stroke-width="5"/>
<rect x="-42" y="-108" width="84" height="70" rx="24" fill="url(#bodyGrad)" stroke="#2b3a55" stroke-width="5.5"/>
<line x1="0" y1="-108" x2="0" y2="-126" stroke="#2b3a55" stroke-width="5" stroke-linecap="round"/>
<circle cx="0" cy="-130" r="7" fill="#5ec9e8" stroke="#2b3a55" stroke-width="3.5"/>
<circle cx="-18" cy="-74" r="10" fill="#5ec9e8" stroke="#2b3a55" stroke-width="3.5"/>
<circle cx="18" cy="-74" r="10" fill="#5ec9e8" stroke="#2b3a55" stroke-width="3.5"/>
</g><g transform="translate(445,440) scale(-0.85,0.85)">
<rect x="-34" y="70" width="24" height="46" rx="10" fill="url(#bodyGrad)" stroke="#2b3a55" stroke-width="5"/>
<rect x="10" y="70" width="24" height="46" rx="10" fill="url(#bodyGrad)" stroke="#2b3a55" stroke-width="5"/>
<rect x="46" y="-6" width="22" height="70" rx="11" fill="url(#bodyGrad)" stroke="#2b3a55" stroke-width="5"/>
<rect x="-68" y="-6" width="22" height="70" rx="11" fill="url(#bodyGrad)" stroke="#2b3a55" stroke-width="5"/>
<rect x="-46" y="-30" width="92" height="104" rx="22" fill="url(#bodyGrad)" stroke="#2b3a55" stroke-width="5.5"/>
<rect x="-22" y="6" width="44" height="10" rx="5" fill="#4a90e2"/>
<circle cx="0" cy="34" r="9" fill="none" stroke="#4a90e2" stroke-width="4"/>
<rect x="-9" y="-42" width="18" height="16" fill="url(#bodyGrad)" stroke="#2b3a55" stroke-width="5"/>
<rect x="-42" y="-108" width="84" height="70" rx="24" fill="url(#bodyGrad)" stroke="#2b3a55" stroke-width="5.5"/>
<line x1="0" y1="-108" x2="0" y2="-126" stroke="#2b3a55" stroke-width="5" stroke-linecap="round"/>
<circle cx="0" cy="-130" r="7" fill="#5ec9e8" stroke="#2b3a55" stroke-width="3.5"/>
<circle cx="-18" cy="-74" r="10" fill="#5ec9e8" stroke="#2b3a55" stroke-width="3.5"/>
<circle cx="18" cy="-74" r="10" fill="#5ec9e8" stroke="#2b3a55" stroke-width="3.5"/>
</g>
</svg>