<svg viewBox="0 0 600 600" xmlns="http://www.w3.org/2000/svg"><defs>
  <radialGradient id="bgGrad" cx="50%" cy="40%" r="75%">
    <stop offset="0%" stop-color="#f6f9fd"/>
    <stop offset="100%" stop-color="#e2eaf7"/>
  </radialGradient>
  <radialGradient id="glow" cx="50%" cy="45%" r="50%">
    <stop offset="0%" stop-color="#8ec7ff" stop-opacity="0.5"/>
    <stop offset="100%" stop-color="#8ec7ff" stop-opacity="0"/>
  </radialGradient>
  <linearGradient id="bodyGrad" x1="0%" y1="0%" x2="0%" y2="100%">
    <stop offset="0%" stop-color="#ffffff"/>
    <stop offset="100%" stop-color="#ecf1f9"/>
  </linearGradient>
</defs>
<rect width="600" height="600" fill="url(#bgGrad)"/>
<circle cx="300" cy="270" r="230" fill="url(#glow)"/>
<g transform="translate(215,400) rotate(0) scale(1.3)">
<rect x="-32" y="70" width="24" height="55" rx="10" fill="url(#bodyGrad)" stroke="#2b3a55" stroke-width="5"/>
<rect x="8" y="70" width="24" height="55" rx="10" fill="url(#bodyGrad)" stroke="#2b3a55" stroke-width="5"/>
<rect x="-55" y="-30" width="110" height="105" rx="24" fill="url(#bodyGrad)" stroke="#2b3a55" stroke-width="5"/>
<g transform="rotate(-15)"><rect x="-95" y="-15" width="24" height="70" rx="10" fill="url(#bodyGrad)" stroke="#2b3a55" stroke-width="5"/></g>
<g transform="rotate(55)"><rect x="71" y="-15" width="24" height="70" rx="10" fill="url(#bodyGrad)" stroke="#2b3a55" stroke-width="5"/></g>
<rect x="-42" y="-100" width="84" height="72" rx="22" fill="url(#bodyGrad)" stroke="#2b3a55" stroke-width="5"/>
<circle cx="-16" cy="-64" r="9" fill="#5ec9e8"/>
<circle cx="16" cy="-64" r="9" fill="#5ec9e8"/>
</g><g transform="translate(410,400) rotate(0) scale(1.05)">
<rect x="-32" y="70" width="24" height="55" rx="10" fill="url(#bodyGrad)" stroke="#2b3a55" stroke-width="5"/>
<rect x="8" y="70" width="24" height="55" rx="10" fill="url(#bodyGrad)" stroke="#2b3a55" stroke-width="5"/>
<rect x="-55" y="-30" width="110" height="105" rx="24" fill="url(#bodyGrad)" stroke="#2b3a55" stroke-width="5"/>
<g transform="rotate(-55)"><rect x="-95" y="-15" width="24" height="70" rx="10" fill="url(#bodyGrad)" stroke="#2b3a55" stroke-width="5"/></g>
<g transform="rotate(15)"><rect x="71" y="-15" width="24" height="70" rx="10" fill="url(#bodyGrad)" stroke="#2b3a55" stroke-width="5"/></g>
<rect x="-42" y="-100" width="84" height="72" rx="22" fill="url(#bodyGrad)" stroke="#2b3a55" stroke-width="5"/>
<circle cx="-16" cy="-64" r="9" fill="#5ec9e8"/>
<circle cx="16" cy="-64" r="9" fill="#5ec9e8"/>
</g>
<g transform="translate(313,240)">
<circle cx="0" cy="0" r="46" fill="#dce6f5" fill-opacity="0.55" stroke="#4a90e2" stroke-width="5"/>
<ellipse cx="0" cy="0" rx="20" ry="46" fill="none" stroke="#4a90e2" stroke-width="3"/>
<line x1="-46" y1="0" x2="46" y2="0" stroke="#4a90e2" stroke-width="3"/>
<path d="M-40,-22 q40,18 80,0" fill="none" stroke="#4a90e2" stroke-width="3"/>
<path d="M-40,22 q40,-18 80,0" fill="none" stroke="#4a90e2" stroke-width="3"/>
</g>
<g transform="translate(313,340)" stroke="#2b3a55" stroke-width="6" fill="none" stroke-linecap="round">
<line x1="-18" y1="0" x2="18" y2="0"/>
</g>

</svg>