<svg xmlns="http://www.w3.org/2000/svg" viewBox="0 0 600 600" width="600" height="600"><defs><radialGradient id="bg" cx="50%" cy="45%" r="75%"><stop offset="0" stop-color="#f6f9fd"/><stop offset="1" stop-color="#e2eaf7"/></radialGradient><radialGradient id="gl"><stop offset="0" stop-color="#8ec7ff" stop-opacity=".5"/><stop offset="1" stop-color="#8ec7ff" stop-opacity="0"/></radialGradient><linearGradient id="rb" x1="0" y1="0" x2="0" y2="1"><stop offset="0" stop-color="#fff"/><stop offset="1" stop-color="#ecf1f9"/></linearGradient></defs><rect width="600" height="600" fill="url(#bg)"/><circle cx="300" cy="300" r="260" fill="url(#gl)"/><g transform="translate(200,250) scale(1.2)"><rect x="-60" y="20" width="120" height="130" rx="26" fill="url(#rb)" stroke="#2b3a55" stroke-width="6"/><rect x="-100" y="40" width="34" height="90" rx="16" fill="url(#rb)" stroke="#2b3a55" stroke-width="6"/><rect x="66" y="40" width="34" height="90" rx="16" fill="url(#rb)" stroke="#2b3a55" stroke-width="6"/><rect x="-46" y="150" width="34" height="70" rx="14" fill="url(#rb)" stroke="#2b3a55" stroke-width="6"/><rect x="12" y="150" width="34" height="70" rx="14" fill="url(#rb)" stroke="#2b3a55" stroke-width="6"/><rect x="-70" y="-90" width="140" height="100" rx="30" fill="url(#rb)" stroke="#2b3a55" stroke-width="6"/><circle cx="-28" cy="-40" r="12" fill="#5ec9e8"/><circle cx="28" cy="-40" r="12" fill="#5ec9e8"/><rect x="-20" y="55" width="40" height="22" rx="8" fill="#4a90e2"/></g><g transform="translate(350,170)"><rect width="200" height="250" rx="18" fill="#fff" stroke="#2b3a55" stroke-width="6"/><rect x="25" y="30" width="150" height="90" rx="12" fill="#e2eaf7" stroke="#2b3a55" stroke-width="6"/><path d="M35 105 L80 70 L110 90 L160 45" fill="none" stroke="#4a90e2" stroke-width="7" stroke-linecap="round"/><circle cx="60" cy="170" r="18" fill="#5ec9e8" stroke="#2b3a55" stroke-width="6"/><circle cx="140" cy="170" r="18" fill="#4a90e2" stroke="#2b3a55" stroke-width="6"/><path d="M78 170 h44" stroke="#2b3a55" stroke-width="6"/><rect x="40" y="212" width="120" height="14" rx="7" fill="#e2eaf7"/></g></svg>