<svg xmlns="http://www.w3.org/2000/svg" width="600" height="600" viewBox="0 0 600 600">
<defs>
  <radialGradient id="bg" cx="35%" cy="28%" r="85%">
    <stop offset="0%" stop-color="#f6f9fd"/>
    <stop offset="100%" stop-color="#e2eaf7"/>
  </radialGradient>
  <linearGradient id="body" x1="0%" y1="0%" x2="0%" y2="100%">
    <stop offset="0%" stop-color="#ffffff"/>
    <stop offset="100%" stop-color="#ecf1f9"/>
  </linearGradient>
  <radialGradient id="glow" cx="50%" cy="50%" r="50%">
    <stop offset="0%" stop-color="#8ec7ff" stop-opacity="0.5"/>
    <stop offset="100%" stop-color="#8ec7ff" stop-opacity="0"/>
  </radialGradient>
</defs>
<rect width="600" height="600" fill="url(#bg)"/>
<circle cx="300" cy="300" r="230" fill="url(#glow)"/>

<g transform="translate(220,470) rotate(0) scale(1.05)">
<rect x="-22" y="70" width="16" height="34" rx="8" fill="url(#body)" stroke="#2b3a55" stroke-width="4"/>
<rect x="6" y="70" width="16" height="34" rx="8" fill="url(#body)" stroke="#2b3a55" stroke-width="4"/>
<rect x="-34" y="4" width="68" height="72" rx="20" fill="url(#body)" stroke="#2b3a55" stroke-width="4.5"/>
<circle cx="0" cy="38" r="14" fill="#dceaff" stroke="#2b3a55" stroke-width="3"/>
<circle cx="0" cy="38" r="6" fill="#4a90e2"/>
<rect x="-52" y="14" width="16" height="50" rx="8" fill="url(#body)" stroke="#2b3a55" stroke-width="4"/>
<rect x="36" y="10" width="16" height="50" rx="8" fill="url(#body)" stroke="#2b3a55" stroke-width="4" transform="rotate(-40 44 16)"/>
<rect x="-36" y="-70" width="72" height="66" rx="26" fill="url(#body)" stroke="#2b3a55" stroke-width="4.5"/>
<circle cx="-15" cy="-38" r="10.5" fill="#5ec9e8"/>
<circle cx="15" cy="-38" r="10.5" fill="#5ec9e8"/>
<circle cx="-15" cy="-38" r="4" fill="#0d2033"/>
<circle cx="15" cy="-38" r="4" fill="#0d2033"/>
<rect x="-3.5" y="-88" width="7" height="14" rx="3.5" fill="#2b3a55"/>
<circle cx="0" cy="-92" r="6.5" fill="#4a90e2"/>
</g>
<g transform="translate(430,300)">
<rect x="-70" y="-90" width="140" height="180" rx="10" fill="#eef2f9" stroke="#2b3a55" stroke-width="4"/>
<line x1="-50" y1="-58" x2="50" y2="-58" stroke="#c7d0e0" stroke-width="4"/>
<line x1="-50" y1="-32" x2="50" y2="-32" stroke="#c7d0e0" stroke-width="4"/>
<line x1="-50" y1="-6" x2="30" y2="-6" stroke="#c7d0e0" stroke-width="4"/>
<line x1="-50" y1="20" x2="50" y2="20" stroke="#c7d0e0" stroke-width="4"/>
<line x1="-50" y1="46" x2="20" y2="46" stroke="#c7d0e0" stroke-width="4"/>
</g>
<g transform="translate(255,205)">
<line x1="0" y1="0" x2="0" y2="-46" stroke="#2b3a55" stroke-width="5" stroke-linecap="round"/>
<line x1="-46" y1="-46" x2="46" y2="-46" stroke="#2b3a55" stroke-width="5" stroke-linecap="round"/>
<line x1="-46" y1="-46" x2="-46" y2="-30" stroke="#2b3a55" stroke-width="4" stroke-linecap="round"/>
<line x1="46" y1="-46" x2="46" y2="-30" stroke="#2b3a55" stroke-width="4" stroke-linecap="round"/>
<path d="M-46,-30 q-16,26 -32,0 z" fill="#c6ddfb" stroke="#2b3a55" stroke-width="3" stroke-linejoin="round"/>
<path d="M46,-30 q16,26 32,0 z" fill="#a9cdf7" stroke="#2b3a55" stroke-width="3" stroke-linejoin="round"/>
<rect x="-30" y="0" width="60" height="10" rx="4" fill="#4a90e2" stroke="#2b3a55" stroke-width="3"/>
</g>

</svg>