<svg xmlns="http://www.w3.org/2000/svg" width="600" height="600" viewBox="0 0 600 600">
<defs>
  <radialGradient id="bg" cx="35%" cy="28%" r="85%">
    <stop offset="0%" stop-color="#f6f9fd"/>
    <stop offset="100%" stop-color="#e2eaf7"/>
  </radialGradient>
  <linearGradient id="body" x1="0%" y1="0%" x2="0%" y2="100%">
    <stop offset="0%" stop-color="#ffffff"/>
    <stop offset="100%" stop-color="#ecf1f9"/>
  </linearGradient>
  <radialGradient id="glow" cx="50%" cy="50%" r="50%">
    <stop offset="0%" stop-color="#8ec7ff" stop-opacity="0.5"/>
    <stop offset="100%" stop-color="#8ec7ff" stop-opacity="0"/>
  </radialGradient>
</defs>
<rect width="600" height="600" fill="url(#bg)"/>
<circle cx="300" cy="300" r="230" fill="url(#glow)"/>
<g transform="translate(190,470) rotate(0) scale(1.05)">
<rect x="-22" y="70" width="16" height="34" rx="8" fill="url(#body)" stroke="#2b3a55" stroke-width="4"/>
<rect x="6" y="70" width="16" height="34" rx="8" fill="url(#body)" stroke="#2b3a55" stroke-width="4"/>
<rect x="-34" y="4" width="68" height="72" rx="20" fill="url(#body)" stroke="#2b3a55" stroke-width="4.5"/>
<circle cx="0" cy="38" r="14" fill="#dceaff" stroke="#2b3a55" stroke-width="3"/>
<circle cx="0" cy="38" r="6" fill="#4a90e2"/>
<rect x="-52" y="14" width="16" height="50" rx="8" fill="url(#body)" stroke="#2b3a55" stroke-width="4"/>
<rect x="36" y="-10" width="16" height="50" rx="8" fill="url(#body)" stroke="#2b3a55" stroke-width="4" transform="rotate(-100 44 -4)"/>
<rect x="-36" y="-70" width="72" height="66" rx="26" fill="url(#body)" stroke="#2b3a55" stroke-width="4.5"/>
<circle cx="-15" cy="-38" r="10.5" fill="#5ec9e8"/>
<circle cx="15" cy="-38" r="10.5" fill="#5ec9e8"/>
<circle cx="-15" cy="-38" r="4" fill="#0d2033"/>
<circle cx="15" cy="-38" r="4" fill="#0d2033"/>
<rect x="-3.5" y="-88" width="7" height="14" rx="3.5" fill="#2b3a55"/>
<circle cx="0" cy="-92" r="6.5" fill="#4a90e2"/>
</g><g transform="translate(460,480) rotate(0) scale(0.55)">
<rect x="-22" y="70" width="16" height="30" rx="8" fill="url(#body)" stroke="#2b3a55" stroke-width="4"/>
<rect x="6" y="70" width="16" height="30" rx="8" fill="url(#body)" stroke="#2b3a55" stroke-width="4"/>
<rect x="-32" y="6" width="64" height="66" rx="18" fill="url(#body)" stroke="#2b3a55" stroke-width="4.5"/>
<rect x="-46" y="18" width="16" height="44" rx="8" fill="url(#body)" stroke="#2b3a55" stroke-width="4"/>
<rect x="30" y="18" width="16" height="44" rx="8" fill="url(#body)" stroke="#2b3a55" stroke-width="4"/>
<rect x="-32" y="-56" width="64" height="60" rx="22" fill="url(#body)" stroke="#2b3a55" stroke-width="4.5"/>
<circle cx="-13" cy="-28" r="9" fill="#5ec9e8"/>
<circle cx="13" cy="-28" r="9" fill="#5ec9e8"/>
<circle cx="-13" cy="-28" r="3.5" fill="#0d2033"/>
<circle cx="13" cy="-28" r="3.5" fill="#0d2033"/>
</g><path d="M255,235 L400,260" stroke="#c7d0e0" stroke-width="5" stroke-dasharray="4 9" stroke-linecap="round"/><g transform="translate(255,220)">
<rect x="-48.0" y="-48.0" width="96" height="96" rx="16" fill="#ffffff" stroke="#2b3a55" stroke-width="4"/>
<rect x="-26" y="-30" width="38" height="48" rx="4" fill="#dceaff" stroke="#2b3a55" stroke-width="3"/>
<rect x="-14" y="-18" width="38" height="48" rx="4" fill="#ffffff" stroke="#2b3a55" stroke-width="3.5"/>
<line x1="-6" y1="-4" x2="16" y2="-4" stroke="#4a90e2" stroke-width="3" stroke-linecap="round"/>
<line x1="-6" y1="6" x2="16" y2="6" stroke="#4a90e2" stroke-width="3" stroke-linecap="round"/>
<line x1="-6" y1="16" x2="10" y2="16" stroke="#4a90e2" stroke-width="3" stroke-linecap="round"/>
</g><g transform="translate(410,225)">
<rect x="-42.0" y="-42.0" width="84" height="84" rx="16" fill="#ffffff" stroke="#2b3a55" stroke-width="4"/>
<rect x="-18" y="-2" width="36" height="30" rx="6" fill="#8ec7ff" stroke="#2b3a55" stroke-width="3.5"/>
<path d="M-12,-2 L-12,-16 A12,12 0 0 1 12,-16 L12,-2" fill="none" stroke="#2b3a55" stroke-width="4" stroke-linecap="round"/>
<circle cx="0" cy="12" r="5" fill="#2b3a55"/>
<rect x="-2.5" y="12" width="5" height="10" rx="2" fill="#2b3a55"/>
</g>
</svg>