<svg xmlns="http://www.w3.org/2000/svg" viewBox="0 0 600 600" width="600" height="600">
<defs><radialGradient id="bg" cx="50%" cy="45%" r="75%"><stop offset="0" stop-color="#f6f9fd"/><stop offset="1" stop-color="#e2eaf7"/></radialGradient>
<radialGradient id="gl" cx="50%" cy="50%" r="50%"><stop offset="0" stop-color="#8ec7ff" stop-opacity=".5"/><stop offset="1" stop-color="#8ec7ff" stop-opacity="0"/></radialGradient>
<linearGradient id="rb" x1="0" y1="0" x2="0" y2="1"><stop offset="0" stop-color="#fff"/><stop offset="1" stop-color="#ecf1f9"/></linearGradient></defs>
<rect width="600" height="600" fill="url(#bg)"/><circle cx="300" cy="300" r="260" fill="url(#gl)"/>
<g transform="translate(190,230) scale(1) rotate(0)">
<rect x="-70" y="-10" width="140" height="150" rx="30" fill="url(#rb)" stroke="#2b3a55" stroke-width="6"/>
<rect x="-100" y="10" width="30" height="90" rx="15" fill="url(#rb)" stroke="#2b3a55" stroke-width="6"/>
<rect x="70" y="10" width="30" height="90" rx="15" fill="url(#rb)" stroke="#2b3a55" stroke-width="6"/>
<rect x="-50" y="130" width="35" height="70" rx="14" fill="url(#rb)" stroke="#2b3a55" stroke-width="6"/>
<rect x="15" y="130" width="35" height="70" rx="14" fill="url(#rb)" stroke="#2b3a55" stroke-width="6"/>
<circle cx="0" cy="70" r="14" fill="#4a90e2"/>
<rect x="-65" y="-110" width="130" height="95" rx="32" fill="url(#rb)" stroke="#2b3a55" stroke-width="6"/>
<circle cx="-25" cy="-63" r="12" fill="#5ec9e8"/><circle cx="25" cy="-63" r="12" fill="#5ec9e8"/>
<line x1="0" y1="-110" x2="0" y2="-135" stroke="#2b3a55" stroke-width="6"/><circle cx="0" cy="-140" r="8" fill="#4a90e2"/>
</g><rect x="320" y="240" width="210" height="110" rx="14" fill="#fff" stroke="#2b3a55" stroke-width="6"/><circle cx="380" cy="295" r="34" fill="#e2eaf7" stroke="#2b3a55" stroke-width="6"/><circle cx="380" cy="295" r="10" fill="#5ec9e8"/><circle cx="465" cy="295" r="34" fill="#e2eaf7" stroke="#2b3a55" stroke-width="6"/><circle cx="465" cy="295" r="10" fill="#5ec9e8"/><rect x="335" y="350" width="150" height="14" fill="#4a90e2"/></svg>