<svg xmlns="http://www.w3.org/2000/svg" viewBox="0 0 600 600" width="600" height="600"><defs><radialGradient id="bg" cx="50%" cy="45%" r="75%"><stop offset="0" stop-color="#f6f9fd"/><stop offset="1" stop-color="#e2eaf7"/></radialGradient><radialGradient id="glow"><stop offset="0" stop-color="#8ec7ff" stop-opacity=".5"/><stop offset="1" stop-color="#8ec7ff" stop-opacity="0"/></radialGradient><linearGradient id="body" x1="0" y1="0" x2="0" y2="1"><stop offset="0" stop-color="#fff"/><stop offset="1" stop-color="#ecf1f9"/></linearGradient></defs><rect width="600" height="600" fill="url(#bg)"/><circle cx="300" cy="300" r="260" fill="url(#glow)"/><g transform="translate(200,230) rotate(-3) scale(1.35)"><rect x="-55" y="-10" width="110" height="130" rx="26" stroke="#2b3a55" stroke-width="5" fill="url(#body)"/><rect x="-85" y="5" width="26" height="85" rx="13" stroke="#2b3a55" stroke-width="5" fill="url(#body)"/><rect x="59" y="5" width="26" height="85" rx="13" stroke="#2b3a55" stroke-width="5" fill="url(#body)"/><rect x="-42" y="115" width="30" height="60" rx="14" stroke="#2b3a55" stroke-width="5" fill="url(#body)"/><rect x="12" y="115" width="30" height="60" rx="14" stroke="#2b3a55" stroke-width="5" fill="url(#body)"/><rect x="-60" y="-110" width="120" height="95" rx="30" stroke="#2b3a55" stroke-width="5" fill="url(#body)"/><circle cx="-24" cy="-62" r="12" fill="#5ec9e8"/><circle cx="24" cy="-62" r="12" fill="#5ec9e8"/><rect x="-20" y="30" width="40" height="22" rx="8" fill="#4a90e2"/></g><g stroke="#2b3a55" stroke-width="5"><path d="M390 330 q0-70 70-70 q70 0 70 70 v90 h-140z" fill="#fff"/><path d="M425 420 v-70 h70 v70" fill="#4a90e2" stroke-width="4"/><circle cx="460" cy="300" r="20" fill="#5ec9e8"/></g><text x="430" y="475" font-size="44" font-family="Arial" fill="#2b3a55" font-weight="bold">DE · EN</text><path d="M80 120 l40 -40 l40 40 l-40 40z" fill="#4a90e2" opacity=".5"/></svg>