<svg xmlns="http://www.w3.org/2000/svg" width="600" height="600" viewBox="0 0 600 600">
  <defs>
    <radialGradient id="bgGrad" cx="50%" cy="40%" r="75%">
      <stop offset="0%" stop-color="#f6f9fd"/>
      <stop offset="100%" stop-color="#e2eaf7"/>
    </radialGradient>
    <radialGradient id="glow" cx="50%" cy="45%" r="55%">
      <stop offset="0%" stop-color="#8ec7ff" stop-opacity="0.5"/>
      <stop offset="100%" stop-color="#8ec7ff" stop-opacity="0"/>
    </radialGradient>
    <linearGradient id="botFill" x1="0%" y1="0%" x2="0%" y2="100%">
      <stop offset="0%" stop-color="#ffffff"/>
      <stop offset="100%" stop-color="#ecf1f9"/>
    </linearGradient>
  </defs>
  <rect width="600" height="600" fill="url(#bgGrad)"/>
  <circle cx="300" cy="270" r="260" fill="url(#glow)"/>

  <g transform="translate(230,320) rotate(0) scale(1.05)">
    <rect x="-38" y="70" width="26" height="55" rx="10" fill="url(#botFill)" stroke="#2b3a55" stroke-width="5"/>
    <rect x="12" y="70" width="26" height="55" rx="10" fill="url(#botFill)" stroke="#2b3a55" stroke-width="5"/>
    <g transform="rotate(-18)">
      <rect x="-92" y="-10" width="24" height="70" rx="12" fill="url(#botFill)" stroke="#2b3a55" stroke-width="5"/>
    </g>
    <g transform="rotate(18)">
      <rect x="68" y="-10" width="24" height="70" rx="12" fill="url(#botFill)" stroke="#2b3a55" stroke-width="5"/>
    </g>
    <rect x="-55" y="-20" width="110" height="95" rx="22" fill="url(#botFill)" stroke="#2b3a55" stroke-width="5"/>
    <circle cx="0" cy="20" r="10" fill="none" stroke="#4a90e2" stroke-width="4"/>
    <rect x="-10" y="-32" width="20" height="16" fill="url(#botFill)" stroke="#2b3a55" stroke-width="4"/>
    <rect x="-42" y="-95" width="84" height="66" rx="20" fill="url(#botFill)" stroke="#2b3a55" stroke-width="5"/>
    <circle cx="-16" cy="-64" r="9" fill="#5ec9e8" stroke="#2b3a55" stroke-width="2.5"/>
    <circle cx="16" cy="-64" r="9" fill="#5ec9e8" stroke="#2b3a55" stroke-width="2.5"/>
    <rect x="-20" y="-104" width="40" height="10" rx="5" fill="#4a90e2"/>

    <g transform="translate(90,-10) rotate(-6)">
      <path d="M0,-40 L34,-26 L34,10 C34,40 17,58 0,66 C-17,58 -34,40 -34,10 L-34,-26 Z"
            fill="#ffffff" stroke="#2b3a55" stroke-width="4"/>
      <line x1="-14" y1="-10" x2="14" y2="26" stroke="#d9534f" stroke-width="6"/>
      <line x1="14" y1="-10" x2="-14" y2="26" stroke="#d9534f" stroke-width="6"/>
    </g>
  </g>

  <g transform="translate(460,420) rotate(0) scale(0.55)">
    <rect x="-38" y="70" width="26" height="55" rx="10" fill="url(#botFill)" stroke="#2b3a55" stroke-width="5"/>
    <rect x="12" y="70" width="26" height="55" rx="10" fill="url(#botFill)" stroke="#2b3a55" stroke-width="5"/>
    <g transform="rotate(-18)">
      <rect x="-92" y="-10" width="24" height="70" rx="12" fill="url(#botFill)" stroke="#2b3a55" stroke-width="5"/>
    </g>
    <g transform="rotate(18)">
      <rect x="68" y="-10" width="24" height="70" rx="12" fill="url(#botFill)" stroke="#2b3a55" stroke-width="5"/>
    </g>
    <rect x="-55" y="-20" width="110" height="95" rx="22" fill="url(#botFill)" stroke="#2b3a55" stroke-width="5"/>
    <circle cx="0" cy="20" r="10" fill="none" stroke="#4a90e2" stroke-width="4"/>
    <rect x="-10" y="-32" width="20" height="16" fill="url(#botFill)" stroke="#2b3a55" stroke-width="4"/>
    <rect x="-42" y="-95" width="84" height="66" rx="20" fill="url(#botFill)" stroke="#2b3a55" stroke-width="5"/>
    <circle cx="-16" cy="-64" r="9" fill="#5ec9e8" stroke="#2b3a55" stroke-width="2.5"/>
    <circle cx="16" cy="-64" r="9" fill="#5ec9e8" stroke="#2b3a55" stroke-width="2.5"/>
    <rect x="-20" y="-104" width="40" height="10" rx="5" fill="#4a90e2"/>

    <g transform="translate(80,10)">
      <circle cx="0" cy="0" r="24" fill="#fff6da" stroke="#2b3a55" stroke-width="4"/>
      <text x="0" y="8" font-size="26" text-anchor="middle" fill="#4a90e2" font-family="Arial" font-weight="bold">$</text>
    </g>
  </g>
</svg>